<svg width="32" height="32" viewBox="0 0 32 32" fill="none" xmlns="http://www.w3.org/2000/svg">
  <!-- GitHub-docs-style book icon in project's neutral palette -->
  <path d="M6 4.5C6 3.67 6.67 3 7.5 3H14c1.1 0 2 .9 2 2v20c0-.83-.67-1.5-1.5-1.5H7.5C6.67 23.5 6 22.83 6 22V4.5z" fill="#3F3F46"/>
  <path d="M26 4.5c0-.83-.67-1.5-1.5-1.5H18c-1.1 0-2 .9-2 2v20c0-.83.67-1.5 1.5-1.5h6.5c.83 0 1.5-.67 1.5-1.5V4.5z" fill="#27272A"/>
  <path d="M7.5 25C6.67 25 6 25.67 6 26.5S6.67 28 7.5 28h7c.83 0 1.5-.67 1.5-1.5S15.33 25 14.5 25h-7z" fill="#52525B"/>
  <path d="M24.5 25c.83 0 1.5.67 1.5 1.5S25.33 28 24.5 28h-7c-.83 0-1.5-.67-1.5-1.5s.67-1.5 1.5-1.5h7z" fill="#3F3F46"/>
  <line x1="16" y1="5" x2="16" y2="25" stroke="#18181B" stroke-width="0.5"/>
  <!-- Page lines on left page -->
  <line x1="8.5" y1="8" x2="13.5" y2="8" stroke="#71717A" stroke-width="1" stroke-linecap="round"/>
  <line x1="8.5" y1="11" x2="13.5" y2="11" stroke="#71717A" stroke-width="1" stroke-linecap="round"/>
  <line x1="8.5" y1="14" x2="12" y2="14" stroke="#71717A" stroke-width="1" stroke-linecap="round"/>
  <!-- Page lines on right page -->
  <line x1="18.5" y1="8" x2="23.5" y2="8" stroke="#52525B" stroke-width="1" stroke-linecap="round"/>
  <line x1="18.5" y1="11" x2="23.5" y2="11" stroke="#52525B" stroke-width="1" stroke-linecap="round"/>
  <line x1="18.5" y1="14" x2="22" y2="14" stroke="#52525B" stroke-width="1" stroke-linecap="round"/>
</svg>
